<?xml version="1.0" encoding="UTF-8"?>
<svg id="Layer_1" data-name="Layer 1" xmlns="http://www.w3.org/2000/svg" viewBox="0 0 400 647.32">
  <defs>
    <style>
      .cls-1, .cls-2 {
        fill: #231f20;
      }

      .cls-2 {
        fill-rule: evenodd;
      }
    </style>
  </defs>
  <g>
    <path class="cls-1" d="m7.93,546.88c7.35-1.41,20.5-1.98,28.98-1.98,21.2,0,36.75,8.48,36.75,30.25s-13,32.09-33.78,33.78c-16.96,1.41-17.81,1.41-17.81,19.79v15.97H7.93v-97.81Zm14.13,54.28c3.39-1.7,5.37-2.83,18.23-4.24,13.71-1.56,18.66-7.63,18.66-21.77,0-10.46-6.22-17.81-22.9-17.81-4.52,0-9.47.28-13.99,1.13v42.69Z"/>
    <path class="cls-1" d="m91.19,546.88c7.35-1.41,20.5-1.98,28.98-1.98,24.88,0,36.75,11.45,36.75,30.95,0,14.7-10.46,25.16-22.05,27.7,7.63,7.91,20.35,26.43,27.42,41.13h-16.25c-6.22-12.44-18.8-31.38-25.02-38.16l-5.23.85c-9.61,1.56-10.46,3.96-10.46,18.94v18.37h-14.13v-97.81Zm14.13,51.87c3.39-1.7,5.23-2.69,16.82-4.1,12.16-1.41,20.07-6.64,20.07-18.8,0-11.31-5.94-18.52-22.9-18.52-4.52,0-9.47.28-13.99,1.13v40.28Z"/>
    <path class="cls-1" d="m178.68,546.03h59.22v12.44h-45.09v29.4h38.73v12.44h-38.73v31.94h45.09v12.44h-59.22v-98.66Z"/>
    <path class="cls-1" d="m312.25,549.85v12.72c-7.21-3.11-17.1-5.8-26.71-5.8-11.45,0-18.23,4.81-18.23,14.13,0,6.93,3.25,10.6,12.58,13.99l13.85,4.81c15.55,5.51,22.76,14.28,22.76,27.99,0,18.09-13.29,28.69-37.17,28.69-10.46,0-17.95-2.12-26.71-6.08v-12.72c7.21,3.25,17.53,6.36,27.14,6.36,13.85,0,22.19-5.23,22.19-14.84,0-8.2-5.09-12.86-17.1-16.96l-10.6-3.68c-14.7-4.95-21.48-13.99-21.48-26.29,0-15.55,10.18-27.84,33.08-27.84,10.6,0,19.93,2.26,26.43,5.51Z"/>
    <path class="cls-1" d="m391.4,549.85v12.72c-7.21-3.11-17.1-5.8-26.71-5.8-11.45,0-18.23,4.81-18.23,14.13,0,6.93,3.25,10.6,12.58,13.99l13.85,4.81c15.55,5.51,22.76,14.28,22.76,27.99,0,18.09-13.29,28.69-37.17,28.69-10.46,0-17.95-2.12-26.71-6.08v-12.72c7.21,3.25,17.53,6.36,27.14,6.36,13.85,0,22.19-5.23,22.19-14.84,0-8.2-5.09-12.86-17.1-16.96l-10.6-3.68c-14.7-4.95-21.49-13.99-21.49-26.29,0-15.55,10.18-27.84,33.08-27.84,10.6,0,19.93,2.26,26.43,5.51Z"/>
  </g>
  <g>
    <path class="cls-2" d="m378.94,54.75c-3.82-7.46-13.39-14.71-25.9-19.29-28.09-10.29-60.46-17.24-140.2-27C182.88,4.79,93.03-.5,80.38.04c-12.89.55-22.84,6.79-27.33,10.52-4.49,3.73-8.47,10.43-8.41,25.25.06,14.82,2.68,17.14,6.31,21.04,3.62,3.9,12.69,9.67,21.03,10.52s23.14-2.63,44.15-2.1c21.41.54,90.07,5.7,115.64,8.42,25.89,2.75,70.58,10.57,84.1,14.73,12.03,3.7,34.25,14.15,44.15,12.63,9.03-1.39,18.94-15.67,21.03-23.15,1.78-6.4,1.06-16.97-2.1-23.15Z"/>
    <path class="cls-2" d="m166.58,128.81c-10.29-.46-51.2-1.76-65.18-2.1-13.98-.34-49.64.88-58.87,2.1s-21.03,4.21-21.03,4.21c4.67,11.44,137.58,8.99,145.07,8.42,16.2-1.24,60.97-6.31,60.97-6.31,0,0-50.68-5.85-60.97-6.31Z"/>
    <path class="cls-2" d="m389.45,72.42s-3.46,20.5-8.41,27.35c-6.28,8.71-22.68,17.5-46.26,25.25-16.87,5.54-51.52,12.65-71.49,16.83-17.59,3.69-64.85,9.04-86.2,10.52-20.83,1.45-85.49,1.77-100.92,2.1-7.61.17-33.94-1.59-44.15-4.21-8.62-2.21-13.75-8.24-16.82-6.31-27.01,16.96-18.11,67.87,27.33,71.54,11.59.94,67.58,2.92,92.51,2.1,49.3-1.62,122.24-10.52,164-18.94,28.4-5.72,71.45-19.86,86.2-39.98,8.89-12.12,14.2-26.62,14.72-46.29.45-16.92-10.51-39.98-10.51-39.98Z"/>
    <path class="cls-2" d="m374.73,182.26c-2.12.43-16.84,10.57-35.74,16.83-24.93,8.26-54.67,14.73-54.67,14.73,0,0,29.04,4.94,42.05,8.42,13.01,3.48,25.35,9.22,29.44,10.52,2.76.87,14.82-7.65,16.82-10.52,3.78-5.42,7.96-13.03,8.41-23.15.41-9.22-2.98-17.51-6.31-16.83Z"/>
    <path class="cls-2" d="m374.73,311.45c-2.12.43-16.84,10.57-35.74,16.83-24.93,8.26-54.67,14.73-54.67,14.73,0,0,29.04,4.94,42.05,8.42,13.01,3.48,25.35,9.22,29.44,10.52,2.76.87,14.73-7.72,16.82-10.52,4.18-5.6,7.96-13.03,8.41-23.15.41-9.22-2.98-17.51-6.31-16.83Z"/>
    <path class="cls-2" d="m166.58,258.01c-10.29-.46-51.2-1.76-65.18-2.1-13.98-.34-49.64.88-58.87,2.1-9.23,1.22-21.03,4.21-21.03,4.21,4.67,11.44,137.58,8.99,145.07,8.42,16.2-1.24,60.97-6.31,60.97-6.31,0,0-50.68-5.85-60.97-6.31Z"/>
    <path class="cls-2" d="m389.45,201.61s-3.46,20.5-8.41,27.35c-6.28,8.71-22.68,17.5-46.26,25.25-16.87,5.54-51.52,12.65-71.49,16.83-17.59,3.69-64.85,9.04-86.2,10.52-20.83,1.45-85.49,1.77-100.92,2.1-7.61.17-33.94-1.59-44.15-4.21-8.62-2.21-13.75-8.24-16.82-6.31-27.01,16.96-18.11,67.87,27.33,71.54,11.59.94,67.58,2.92,92.51,2.1,49.3-1.62,122.24-10.52,164-18.94,28.4-5.72,71.45-19.86,86.2-39.98,8.89-12.12,14.2-26.62,14.72-46.29.45-16.92-10.51-39.98-10.51-39.98Z"/>
    <path class="cls-2" d="m397.86,477.26c-1.76-9.06-19.8-34.35-23.13-33.67-2.12.43-16.84,10.57-35.74,16.83-24.93,8.26-54.67,14.73-54.67,14.73,0,0,24.83,4.94,37.85,8.42,13.01,3.48,30.4,9.38,44.15,16.83,12.33,6.68,17.06,22.37,27.33,18.94,7.18-2.4,7.79-23.66,4.21-42.08Z"/>
    <path class="cls-2" d="m166.58,390.15c-10.29-.46-51.2-1.76-65.18-2.1-13.98-.34-49.64.88-58.87,2.1-9.23,1.22-21.03,4.21-21.03,4.21,4.67,11.44,137.58,8.99,145.07,8.42,16.2-1.24,60.97-6.31,60.97-6.31,0,0-50.68-5.85-60.97-6.31Z"/>
    <path class="cls-2" d="m389.45,333.76s-3.46,20.5-8.41,27.35c-6.28,8.71-22.68,17.5-46.26,25.25-16.87,5.54-51.52,12.65-71.49,16.83-17.59,3.69-64.85,9.04-86.2,10.52-20.83,1.45-85.49,1.77-100.92,2.1-7.61.17-33.94-1.59-44.15-4.21-8.62-2.21-13.75-8.24-16.82-6.31-27.01,16.96-18.11,67.87,27.33,71.54,11.59.94,67.58,2.92,92.51,2.1,49.3-1.62,122.24-10.52,164-18.94,28.4-5.72,71.45-19.86,86.2-39.98,8.89-12.12,14.2-26.62,14.72-46.29.45-16.92-10.51-39.98-10.51-39.98Z"/>
    <g>
      <path class="cls-1" d="m9.17,548.13c7.33-1.41,20.43-1.97,28.88-1.97,21.13,0,36.63,8.45,36.63,30.15s-12.96,31.98-33.67,33.67c-16.91,1.41-17.75,1.41-17.75,19.72v15.92h-14.09v-97.5Zm14.09,54.1c3.38-1.69,5.35-2.82,18.18-4.23,13.67-1.55,18.6-7.61,18.6-21.7,0-10.43-6.2-17.75-22.83-17.75-4.51,0-9.44.28-13.95,1.13v42.55Z"/>
      <path class="cls-1" d="m92.15,548.13c7.33-1.41,20.43-1.97,28.88-1.97,24.8,0,36.63,11.41,36.63,30.86,0,14.65-10.43,25.08-21.98,27.62,7.61,7.89,20.29,26.35,27.33,41h-16.2c-6.2-12.4-18.74-31.28-24.94-38.04l-5.21.85c-9.58,1.55-10.43,3.95-10.43,18.88v18.32h-14.09v-97.5Zm14.09,51.71c3.38-1.69,5.21-2.68,16.77-4.09,12.12-1.41,20.01-6.62,20.01-18.74,0-11.27-5.92-18.46-22.83-18.46-4.51,0-9.44.28-13.95,1.13v40.16Z"/>
      <path class="cls-1" d="m179.36,547.29h59.03v12.4h-44.95v29.31h38.6v12.4h-38.6v31.84h44.95v12.4h-59.03v-98.34Z"/>
      <path class="cls-1" d="m312.5,551.09v12.68c-7.19-3.1-17.05-5.78-26.63-5.78-11.41,0-18.18,4.79-18.18,14.09,0,6.9,3.24,10.57,12.54,13.95l13.81,4.79c15.5,5.49,22.68,14.23,22.68,27.9,0,18.03-13.24,28.6-37.06,28.6-10.43,0-17.89-2.11-26.63-6.06v-12.68c7.19,3.24,17.47,6.34,27.05,6.34,13.81,0,22.12-5.21,22.12-14.79,0-8.17-5.07-12.82-17.05-16.91l-10.57-3.66c-14.65-4.93-21.42-13.95-21.42-26.21,0-15.5,10.14-27.76,32.97-27.76,10.57,0,19.87,2.25,26.35,5.49Z"/>
      <path class="cls-1" d="m391.4,551.09v12.68c-7.19-3.1-17.05-5.78-26.63-5.78-11.41,0-18.18,4.79-18.18,14.09,0,6.9,3.24,10.57,12.54,13.95l13.81,4.79c15.5,5.49,22.68,14.23,22.68,27.9,0,18.03-13.24,28.6-37.06,28.6-10.43,0-17.89-2.11-26.63-6.06v-12.68c7.19,3.24,17.47,6.34,27.05,6.34,13.81,0,22.12-5.21,22.12-14.79,0-8.17-5.07-12.82-17.05-16.91l-10.57-3.66c-14.65-4.93-21.42-13.95-21.42-26.21,0-15.5,10.14-27.76,32.97-27.76,10.57,0,19.87,2.25,26.35,5.49Z"/>
    </g>
  </g>
</svg>